<?xml version="1.0" encoding="iso-8859-1"?>
<!-- Generator: Adobe Illustrator 16.0.0, SVG Export Plug-In . SVG Version: 6.00 Build 0)  -->
<!DOCTYPE svg PUBLIC "-//W3C//DTD SVG 1.1//EN" "http://www.w3.org/Graphics/SVG/1.1/DTD/svg11.dtd">
<svg version="1.1" id="Capa_1" xmlns="http://www.w3.org/2000/svg" xmlns:xlink="http://www.w3.org/1999/xlink" x="0px" y="0px"
	 width="45.22px" height="45.22px" viewBox="0 0 45.22 45.22" style="enable-background:new 0 0 45.22 45.22;" xml:space="preserve"
	>
<g>
	<g>
		<path d="M40.335,5.811H28.886c-2.586,0-4.878,1.281-6.275,3.242c-1.397-1.961-3.689-3.242-6.275-3.242h-2.591V8.78h2.591
			c2.605,0,4.706,2.086,4.706,4.691v15.265c0,2.598-2.095,4.734-4.693,4.734H4.887c-1.039,0-1.917-0.868-1.917-1.907V10.63
			c0-0.646,0.339-1.205,0.848-1.534V5.928C1.612,6.408,0,8.318,0,10.63l0.085,25.803c0,1.863,1.475,3.4,3.336,3.4h15.287
			c0.057,1.103,0.971,1.951,2.089,1.951h3.75c1.12,0,2.033-0.849,2.09-1.951h15.162c1.861,0,3.336-1.537,3.336-3.4L45.22,10.63
			C45.222,7.95,43.015,5.811,40.335,5.811z M42.252,31.563c0,1.039-0.878,1.907-1.917,1.907H28.873
			c-2.598,0-4.692-2.137-4.692-4.734V13.471c0-2.605,2.101-4.691,4.706-4.691h11.449c1.039,0,1.917,0.812,1.917,1.851L42.252,31.563
			L42.252,31.563z"/>
		<path d="M6.219,15.26c0.085,0.034,0.181,0.051,0.27,0.051c0.185,0,0.369-0.074,0.504-0.211l1.282-1.316
			c0.131-0.135,0.313-0.211,0.5-0.211c0.188,0,0.369,0.076,0.5,0.211l1.28,1.316c0.135,0.137,0.315,0.211,0.5,0.211
			c0.087,0,0.198-0.017,0.282-0.051c0.263-0.107,0.456-0.362,0.456-0.646V4.695c0-0.697-0.606-1.26-1.303-1.26H7.06
			c-0.696,0-1.292,0.563-1.292,1.26v9.919C5.769,14.898,5.957,15.153,6.219,15.26z"/>
	</g>
</g>
<g>
</g>
<g>
</g>
<g>
</g>
<g>
</g>
<g>
</g>
<g>
</g>
<g>
</g>
<g>
</g>
<g>
</g>
<g>
</g>
<g>
</g>
<g>
</g>
<g>
</g>
<g>
</g>
<g>
</g>
</svg>
